<svg xmlns="http://www.w3.org/2000/svg" xmlns:xlink="http://www.w3.org/1999/xlink" version="1.1" id="logo" x="0px" y="0px" style="enable-background:new 0 0 841.89 595.28;" xml:space="preserve" viewBox="75.73 184.72 99.21 38.69">
<style type="text/css">
	.st0{fill:none;}
	.st1{fill:#00AEEF;}
</style>
<g>
	<rect x="66.17" y="175.17" class="st0" width="124.37" height="76.53"/>
	<path class="st1" d="M104.55,219.69c2.49,0,3.85-1.66,3.85-3.98v-11.84h5.3v12.11c-0.05,5.33-4.32,7.42-9.15,7.42   c-4.83,0-9.09-2.09-9.15-7.42v-12.11h5.3v11.84C100.71,218.03,102.06,219.69,104.55,219.69z"/>
	<polygon points="81.67,223 86.97,223 86.97,207.58 92.91,207.58 92.91,203.87 75.73,203.87 75.73,207.58 81.67,207.58  "/>
	<path d="M94.41,194.55c-1.29,0.41-2.63,0.08-2.62-1.65c0-2.64,6.19-4.85,7.05-7.15c0.21-0.57,0.23-1.05-0.05-1.03   c-0.2,0.01-0.04,0.3-0.48,0.73c-2.56,2.57-6.86,2.56-10.16,4.04c-2.16,0.97-8.5,3.95-7.04,10.6c0.07,0.32,0.26,1.37,0.45,1.37   c0.22,0,0.22-0.63,0.22-1.39c-0.05-3.96,4.64-5.06,6.17-7.65c0.18-0.31,0.5-0.74,0.57-0.54c0.04,0.1,0.01,0.24-0.05,0.52   c-0.48,2.13-2.7,3.49-2.07,5.01c0.82,1.97,3.17,0.5,3.9-0.77c0.19-0.35,0.3-0.57,0.43-0.53c0.1,0.03,0.09,0.43,0.03,0.79   c-0.39,2.29-0.91,3.57-2.59,4.88c-0.54,0.42-1.38,0.5-1.27,0.82c0.03,0.08,0.39,0.07,0.68,0.04c4.46-0.29,8.19-5.54,9.18-8.98   c0.1-0.24,0.13-0.47,0.03-0.55c-0.13-0.1-0.33,0.13-0.53,0.31C95.75,193.88,95.05,194.35,94.41,194.55z"/>
	<path d="M139.67,215.08c0.02-2.08,1.27-3.95,3.37-3.95c2.44,0,3.39,1.67,3.39,3.95H139.67z M149.09,216.83v-1.25   c0-3.68-2.09-6.28-5.86-6.28c-4.21,0-6.18,3.26-6.18,7.16c0,3.92,1.7,6.95,5.97,6.95c3.18,0,5.51-1.51,5.91-4.53h-2.65   c-0.29,1.93-1.27,2.7-3.23,2.7c-2.57,0-3.43-2.29-3.43-4.74H149.09z"/>
	<rect x="152.14" y="203.87" width="2.52" height="19.13"/>
	<path d="M162.56,223v-11.55h3.07v-1.75h-3.07v-2.15c0-1.54,0.74-1.8,2.17-1.8c0.42,0,0.85,0.05,1.27,0.08v-2.09   c-0.59-0.13-1.19-0.27-1.8-0.27c-2.38,0-4.16,1.2-4.16,3.74v2.49h-2.6v1.75h2.6V223H162.56z"/>
	<path d="M167.07,209.7v1.75h2.28v8.48c0,1.77,0.03,3.47,3.77,3.47c0.58,0,1.13-0.05,1.72-0.16v-1.93c-0.41,0.1-0.93,0.16-1.33,0.16   c-0.9,0-1.64-0.45-1.64-1.4v-8.61h3.07v-1.75h-3.07v-3.63l-2.52,0.79v2.84L167.07,209.7z"/>
	<path d="M119,223h6.57c8.18,0,9.04-6.93,9.04-9.57c0-2.64-0.86-9.57-9.04-9.57H119V223z M121.65,206.15h3.92   c4.42,0,6.26,3.34,6.26,7.29c0,3.95-1.84,7.29-6.26,7.29h-3.92V206.15z"/>
</g>
</svg>